<svg xmlns="http://www.w3.org/2000/svg" width="69" height="69" viewBox="0 0 69 69"><g><g><g><path fill="#2fd2b0" d="M63.74 20.488a2.278 2.278 0 0 1-2.276-2.277 2.278 2.278 0 0 1 2.276-2.276 2.279 2.279 0 0 1 2.276 2.276 2.278 2.278 0 0 1-2.276 2.277zm0-6.83a4.557 4.557 0 0 0-4.553 4.553 4.557 4.557 0 0 0 4.553 4.553 4.557 4.557 0 0 0 4.553-4.553 4.557 4.557 0 0 0-4.553-4.552z"/></g><g><path fill="#2fd2b0" d="M4.553 58.049a2.278 2.278 0 0 1-2.276-2.276 2.278 2.278 0 0 1 2.276-2.277 2.278 2.278 0 0 1 2.276 2.277 2.278 2.278 0 0 1-2.276 2.276zm0-6.83A4.557 4.557 0 0 0 0 55.774a4.557 4.557 0 0 0 4.553 4.552 4.557 4.557 0 0 0 4.553-4.552 4.557 4.557 0 0 0-4.553-4.553z"/></g><g><path fill="#2fd2b0" d="M61.533 15.098l-9.82-4.741a1.14 1.14 0 0 0-.99 2.05l9.821 4.74a1.136 1.136 0 0 0 1.52-.53 1.138 1.138 0 0 0-.53-1.52z"/></g><g><path fill="#2fd2b0" d="M51.22 66.016a2.279 2.279 0 0 1-2.277-2.276 2.278 2.278 0 0 1 2.277-2.276 2.278 2.278 0 0 1 2.276 2.276 2.279 2.279 0 0 1-2.276 2.276zm0-6.829a4.558 4.558 0 0 0-4.554 4.553 4.558 4.558 0 0 0 4.554 4.553 4.558 4.558 0 0 0 4.553-4.553 4.558 4.558 0 0 0-4.553-4.553z"/></g><g><path fill="#2fd2b0" d="M49.013 60.626l-9.82-4.74a1.137 1.137 0 1 0-.989 2.05l9.82 4.74a1.136 1.136 0 0 0 1.52-.53 1.139 1.139 0 0 0-.531-1.52z"/></g><g><path fill="#2fd2b0" d="M34.146 37.56a2.279 2.279 0 0 1-2.276-2.276 2.279 2.279 0 0 1 2.276-2.276 2.28 2.28 0 0 1 2.277 2.276 2.279 2.279 0 0 1-2.277 2.277zm0-6.828a4.558 4.558 0 0 0-4.553 4.552 4.558 4.558 0 0 0 4.553 4.553 4.558 4.558 0 0 0 4.554-4.553 4.558 4.558 0 0 0-4.554-4.552z"/></g><g><path fill="#2fd2b0" d="M32.146 32.298l-7.544-5.879a1.138 1.138 0 1 0-1.4 1.796l7.543 5.88a1.14 1.14 0 0 0 1.599-.199 1.14 1.14 0 0 0-.198-1.598z"/></g><g><path fill="#2fd2b0" d="M54.634 52.357c-5.649 0-10.243-4.594-10.243-10.243 0-5.65 4.594-10.244 10.243-10.244 5.65 0 10.244 4.595 10.244 10.244s-4.595 10.243-10.244 10.243zm0-22.764c-6.903 0-12.52 5.618-12.52 12.521 0 6.903 5.617 12.52 12.52 12.52s12.52-5.617 12.52-12.52-5.617-12.52-12.52-12.52z"/></g><g><path fill="#2fd2b0" d="M54.634 40.975a2.279 2.279 0 0 1-2.277-2.275 2.279 2.279 0 0 1 2.277-2.277 2.279 2.279 0 0 1 2.277 2.277 2.278 2.278 0 0 1-2.277 2.275zm0-6.829a4.557 4.557 0 0 0-4.552 4.554 4.557 4.557 0 0 0 4.552 4.552 4.557 4.557 0 0 0 4.553-4.552 4.557 4.557 0 0 0-4.553-4.554z"/></g><g><path fill="#2fd2b0" d="M59.187 51.282c-2.833 1.412-6.272 1.412-9.106 0v-2.32c0-.638.561-1.157 1.251-1.157h6.604c.69 0 1.251.52 1.251 1.156zm-1.25-5.753h-6.605c-1.945 0-3.527 1.54-3.527 3.431v3c0 .407.216.782.568.986a12.513 12.513 0 0 0 6.261 1.688c2.19 0 4.354-.583 6.262-1.688.351-.202.568-.58.568-.984v-3c0-1.893-1.583-3.433-3.528-3.433z"/></g><g><path fill="#2fd2b0" d="M27.317 66.016c-5.649 0-10.244-4.595-10.244-10.243 0-5.65 4.595-10.245 10.244-10.245s10.244 4.595 10.244 10.245c0 5.648-4.595 10.243-10.244 10.243zm0-22.764c-6.903 0-12.52 5.617-12.52 12.52 0 6.904 5.617 12.52 12.52 12.52 6.904 0 12.52-5.617 12.52-12.52s-5.616-12.52-12.52-12.52z"/></g><g><path fill="#2fd2b0" d="M27.317 54.634a2.278 2.278 0 0 1-2.276-2.277 2.279 2.279 0 0 1 2.276-2.276 2.278 2.278 0 0 1 2.276 2.276 2.278 2.278 0 0 1-2.276 2.277zm0-6.829a4.557 4.557 0 0 0-4.553 4.552 4.557 4.557 0 0 0 4.553 4.554 4.557 4.557 0 0 0 4.553-4.554 4.557 4.557 0 0 0-4.553-4.552z"/></g><g><path fill="#2fd2b0" d="M31.87 64.94c-2.833 1.412-6.273 1.412-9.106 0v-2.32c0-.637.562-1.156 1.25-1.156h6.605c.69 0 1.25.519 1.25 1.156zm-1.25-5.753h-6.605c-1.945 0-3.527 1.54-3.527 3.432v3c0 .406.216.782.568.986a12.52 12.52 0 0 0 6.261 1.688 12.52 12.52 0 0 0 6.261-1.688c.352-.202.568-.58.568-.985v-3c0-1.893-1.582-3.433-3.527-3.433z"/></g><g><path fill="#2fd2b0" d="M12.52 37.56c-5.649 0-10.243-4.594-10.243-10.243S6.87 17.073 12.52 17.073c5.65 0 10.244 4.595 10.244 10.244S18.17 37.561 12.52 37.561zm0-22.763C5.617 14.797 0 20.414 0 27.317c0 6.904 5.617 12.52 12.52 12.52s12.52-5.616 12.52-12.52c0-6.903-5.617-12.52-12.52-12.52z"/></g><g><path fill="#2fd2b0" d="M12.52 26.179a2.278 2.278 0 0 1-2.276-2.277 2.278 2.278 0 0 1 2.276-2.276 2.278 2.278 0 0 1 2.277 2.276 2.278 2.278 0 0 1-2.277 2.277zm0-6.83a4.557 4.557 0 0 0-4.552 4.553 4.557 4.557 0 0 0 4.552 4.553 4.557 4.557 0 0 0 4.553-4.553 4.557 4.557 0 0 0-4.553-4.552z"/></g><g><path fill="#2fd2b0" d="M17.073 36.485c-2.833 1.411-6.272 1.411-9.105 0v-2.32c0-.638.56-1.157 1.25-1.157h6.604c.69 0 1.251.52 1.251 1.156zm-1.25-5.753H9.218c-1.945 0-3.528 1.54-3.528 3.432v3c0 .406.216.782.568.985a12.52 12.52 0 0 0 6.261 1.688c2.19 0 4.354-.584 6.261-1.688.353-.202.569-.58.569-.984v-3c0-1.893-1.583-3.433-3.528-3.433z"/></g><g><path fill="#2fd2b0" d="M39.837 22.764c-5.648 0-10.244-4.595-10.244-10.244S34.19 2.277 39.837 2.277c5.65 0 10.245 4.594 10.245 10.243 0 5.65-4.596 10.244-10.245 10.244zm0-22.764c-6.903 0-12.52 5.617-12.52 12.52s5.617 12.52 12.52 12.52c6.904 0 12.521-5.617 12.521-12.52S46.741 0 39.838 0z"/></g><g><path fill="#2fd2b0" d="M39.837 11.382a2.28 2.28 0 0 1-2.276-2.276 2.28 2.28 0 0 1 2.276-2.277 2.28 2.28 0 0 1 2.277 2.277 2.28 2.28 0 0 1-2.277 2.276zm0-6.829a4.557 4.557 0 0 0-4.552 4.553 4.558 4.558 0 0 0 4.552 4.553 4.558 4.558 0 0 0 4.554-4.553 4.558 4.558 0 0 0-4.554-4.553z"/></g><g><path fill="#2fd2b0" d="M44.39 21.689c-2.832 1.41-6.273 1.41-9.106 0v-2.321c0-.637.562-1.156 1.252-1.156h6.603c.69 0 1.25.519 1.25 1.156v2.32zm-1.25-5.754h-6.604c-1.946 0-3.527 1.54-3.527 3.431v3c0 .407.215.783.567.987a12.52 12.52 0 0 0 6.261 1.688c2.19 0 4.354-.584 6.262-1.688.351-.202.567-.58.567-.985v-3c0-1.893-1.581-3.433-3.527-3.433z"/></g><g><path fill="#2fd2b0" d="M29.322 11.78a1.14 1.14 0 0 0-1.605-.125l-7.888 6.75a1.138 1.138 0 1 0 1.479 1.73l7.888-6.75a1.138 1.138 0 0 0 .126-1.606z"/></g><g><path fill="#2fd2b0" d="M54.406 30.05l-6.829-9.106a1.139 1.139 0 0 0-1.821 1.365l6.83 9.106a1.138 1.138 0 0 0 1.82-1.365z"/></g><g><path fill="#2fd2b0" d="M45.065 45.878a1.139 1.139 0 0 0-1.593-.228l-6.358 4.768a1.138 1.138 0 1 0 1.365 1.82l6.358-4.768c.504-.376.605-1.09.228-1.592z"/></g><g><path fill="#2fd2b0" d="M15.935 54.634H7.968a1.138 1.138 0 1 0 0 2.277h7.967a1.138 1.138 0 1 0 0-2.277z"/></g><g><path fill="#2fd2b0" d="M12.52 6.829a2.278 2.278 0 0 1-2.276-2.276 2.278 2.278 0 0 1 2.276-2.276 2.278 2.278 0 0 1 2.277 2.276A2.278 2.278 0 0 1 12.52 6.83zm0-6.829a4.557 4.557 0 0 0-4.552 4.553 4.557 4.557 0 0 0 4.552 4.553 4.557 4.557 0 0 0 4.553-4.553A4.557 4.557 0 0 0 12.52 0z"/></g><g><path fill="#2fd2b0" d="M12.52 6.829c-.628 0-1.138.51-1.138 1.139v7.967a1.138 1.138 0 1 0 2.277 0V7.968c0-.63-.51-1.14-1.139-1.14z"/></g></g></g></svg>