<svg xmlns="http://www.w3.org/2000/svg" width="65" height="77" viewBox="0 0 65 77"><g><g><g><path fill="#2fd2b0" d="M48.51 0H4.493A4.497 4.497 0 0 0 0 4.492v15.272a1.498 1.498 0 0 0 2.994 0V4.492c0-.826.672-1.497 1.498-1.497H48.51c.826 0 1.497.67 1.497 1.497v55.697c0 .826-.671 1.498-1.497 1.498H4.49a1.499 1.499 0 0 1-1.497-1.498V32.39a1.498 1.498 0 0 0-2.994 0v27.8a4.497 4.497 0 0 0 4.492 4.491H48.51a4.497 4.497 0 0 0 4.492-4.492V4.492A4.497 4.497 0 0 0 48.51 0z"/></g><g><path fill="#2fd2b0" d="M2.555 25.408a1.506 1.506 0 0 0-1.058-.437c-.394 0-.78.159-1.059.437-.278.28-.438.667-.438 1.059 0 .395.16.78.438 1.06.28.278.665.439 1.06.439.393 0 .779-.16 1.057-.44a1.51 1.51 0 0 0 .44-1.06c0-.393-.161-.778-.44-1.058z"/></g><g><path fill="#2fd2b0" d="M8.554 68.123a1.507 1.507 0 0 0-1.06-.438c-.393 0-.779.16-1.057.438a1.51 1.51 0 0 0-.44 1.06 1.502 1.502 0 0 0 1.497 1.497 1.501 1.501 0 0 0 1.498-1.498c0-.394-.16-.78-.438-1.059z"/></g><g><path fill="#2fd2b0" d="M57.504 5.998c-.827 0-1.498.671-1.498 1.498v58.692c0 .826-.671 1.497-1.497 1.497H13.485a1.498 1.498 0 0 0 0 2.994h41.024a4.497 4.497 0 0 0 4.492-4.491V7.496c0-.827-.67-1.498-1.497-1.498z"/></g><g><path fill="#2fd2b0" d="M63.502 11.978c-.827 0-1.497.67-1.497 1.497v58.692c0 .826-.672 1.497-1.498 1.497H13.494a1.498 1.498 0 0 0 0 2.995h47.013A4.497 4.497 0 0 0 65 72.167V13.475c0-.826-.67-1.497-1.497-1.497z"/></g><g><path fill="#2fd2b0" d="M22.758 25.453H11.38V14.074h11.38zm1.497-14.373H9.882c-.827 0-1.497.67-1.497 1.497V26.95c0 .827.67 1.498 1.497 1.498h14.373c.827 0 1.498-.67 1.498-1.498V12.577c0-.827-.67-1.497-1.498-1.497z"/></g><g><path fill="#2fd2b0" d="M19.438 35.245a1.497 1.497 0 0 0-2.117 0l-3.98 3.98-1.851-1.85a1.498 1.498 0 0 0-2.118 2.117l2.91 2.91a1.497 1.497 0 0 0 2.117 0l5.039-5.04a1.497 1.497 0 0 0 0-2.117z"/></g><g><path fill="#2fd2b0" d="M43.97 37.281H26.5a1.498 1.498 0 0 0 0 2.995H43.97a1.497 1.497 0 0 0 0-2.995z"/></g><g><path fill="#2fd2b0" d="M43.12 11.08H32.64a1.498 1.498 0 0 0 0 2.994h10.48a1.498 1.498 0 0 0 0-2.994z"/></g><g><path fill="#2fd2b0" d="M43.12 18.266H32.64a1.498 1.498 0 0 0 0 2.995h10.48a1.497 1.497 0 0 0 0-2.995z"/></g><g><path fill="#2fd2b0" d="M43.12 25.453H32.64a1.498 1.498 0 0 0 0 2.995h10.48a1.498 1.498 0 0 0 0-2.995z"/></g><g><path fill="#2fd2b0" d="M19.438 46.68a1.497 1.497 0 0 0-2.117 0l-3.98 3.98-1.851-1.851a1.498 1.498 0 0 0-2.118 2.118l2.91 2.908a1.499 1.499 0 0 0 2.117 0l5.039-5.038a1.497 1.497 0 0 0 0-2.117z"/></g><g><path fill="#2fd2b0" d="M43.97 48.66H26.5a1.498 1.498 0 0 0 0 2.995H43.97a1.498 1.498 0 0 0 0-2.994z"/></g></g></g></svg>